<?xml version="1.0" encoding="UTF-8"?>
<svg version="1.1" xmlns="http://www.w3.org/2000/svg" width="194" height="160">
<path d="M0 0 C0.90234375 0.42410156 1.8046875 0.84820313 2.734375 1.28515625 C13.76589506 6.87545358 20.75243417 14.581151 25.2265625 26.1796875 C28.70556815 36.81693499 29.30614743 46.87664321 29 58 C28.98324219 58.84949219 28.96648437 59.69898438 28.94921875 60.57421875 C27.74166159 83.10378523 16.32524731 106.58896654 0 122 C-7.04028796 127.10705177 -13.15708224 129.92007237 -22 129 C-26.1548501 127.58891883 -27.58178551 126.78158119 -29.66796875 122.8828125 C-30.10753906 121.93148437 -30.54710938 120.98015625 -31 120 C-32.04800781 121.0828125 -32.04800781 121.0828125 -33.1171875 122.1875 C-34.48230469 123.5796875 -34.48230469 123.5796875 -35.875 125 C-37.23238281 126.3921875 -37.23238281 126.3921875 -38.6171875 127.8125 C-41 130 -41 130 -43 130 C-43 130.66 -43 131.32 -43 132 C-60.86794474 141.86083982 -60.86794474 141.86083982 -71.75 139 C-76.46308714 137.15647388 -79.46592805 134.3637578 -82 130 C-82.97587099 127.30339032 -83.50126813 124.84277167 -84 122 C-84.41507812 122.59425781 -84.83015625 123.18851562 -85.2578125 123.80078125 C-94.19187065 135.81877161 -106.345759 145.3440881 -121 149 C-129.47154165 149.77259022 -136.89236249 150.01715589 -144 145 C-145.19921875 142.859375 -145.19921875 142.859375 -146 141 C-146.66 141 -147.32 141 -148 141 C-154.13216971 126.94711108 -151.51741787 110.76499689 -146.171875 96.84326172 C-143.4226014 90.08010896 -140.29668959 83.51321651 -137 77 C-137.48210937 76.54109375 -137.96421875 76.0821875 -138.4609375 75.609375 C-139.09257812 74.99578125 -139.72421875 74.3821875 -140.375 73.75 C-141.00148437 73.14671875 -141.62796875 72.5434375 -142.2734375 71.921875 C-145.12955673 68.74266536 -145.95423059 66.66365649 -146.25 62.375 C-146 59 -146 59 -144 57 C-144.33 56.67 -144.66 56.34 -145 56 C-144.62056512 51.90210331 -144.30694043 49.46041065 -142 46 C-141.34 46 -140.68 46 -140 46 C-139.773125 45.46375 -139.54625 44.9275 -139.3125 44.375 C-137.53490786 41.15840469 -135.57020962 38.62998193 -133 36 C-130.25 35.625 -130.25 35.625 -128 36 C-127.67 36 -127.34 36 -127 36 C-127.23460938 35.113125 -127.46921875 34.22625 -127.7109375 33.3125 C-128.07238816 29.17047085 -127.25186545 28.140161 -124.625 25 C-117.95588334 17.33859263 -111.94139846 13.50528506 -101.80078125 12.15234375 C-99 12 -99 12 -95.0625 12.625 C-94.051875 12.74875 -93.04125 12.8725 -92 13 C-91.175 12.34 -90.35 11.68 -89.5 11 C-87 9 -87 9 -83.5 9.0625 C-80.16100725 9.95687306 -77.82013026 11.03445466 -75 13 C-73.948125 12.29875 -72.89625 11.5975 -71.8125 10.875 C-52.34644138 -1.20148276 -22.15436706 -10.54383766 0 0 Z M-92 35 C-92 35.33 -92 35.66 -92 36 C-89.36 36 -86.72 36 -84 36 C-84 35.67 -84 35.34 -84 35 C-86.64 35 -89.28 35 -92 35 Z M-39.4375 38.875 C-41.61341024 43.22682049 -41.66942209 47.21285368 -41 52 C-39.98646184 54.46887501 -39.3906662 55.70700035 -37.25 57.3125 C-33.94810787 58.32141148 -32.25357608 58.22009103 -29 57 C-26.02642352 53.34294475 -25 49.99520695 -25 45.3125 C-26.13021032 41.56867831 -27.03744925 39.57274144 -30 37 C-34.15850752 36.25740937 -36.05867981 36.27590755 -39.4375 38.875 Z M-9.375 38.5 C-12.2922005 42.98800077 -12.33289707 47.23564551 -11.375 52.3125 C-9.69088124 55.60418666 -8.42637597 56.64538624 -5 58 C-2.17196911 57.86533186 -0.633728 57.49582631 1.59765625 55.75 C4.25980373 52.42787724 4.01316483 48.12059158 4 44 C3.10321771 40.68880385 2.41075051 39.41075051 0 37 C-3.79345105 36.57850544 -6.10278648 36.43333883 -9.375 38.5 Z M-125 38 C-125 38.66 -125 39.32 -125 40 C-123.25832301 41.3980016 -121.45529359 42.72020603 -119.625 44 C-112.1832422 49.23038274 -112.1832422 49.23038274 -111.375 52.625 C-111.25125 53.40875 -111.1275 54.1925 -111 55 C-109.29115995 53.37660195 -107.62553283 51.70680947 -106 50 C-106 49.34 -106 48.68 -106 48 C-106.87140625 47.75507812 -107.7428125 47.51015625 -108.640625 47.2578125 C-112.24104553 45.90974807 -114.71383811 44.21502533 -117.75 41.875 C-121.02912269 38.99450607 -121.02912269 38.99450607 -125 38 Z M-115 59 C-114 61 -114 61 -114 61 Z " fill="#FDFBF7" transform="translate(155,4)"/>
<path d="M0 0 C0.99 0.495 1.98 0.99 3 1.5 C2.67 3.15 2.34 4.8 2 6.5 C1.34 6.5 0.68 6.5 0 6.5 C-0.23589844 7.180625 -0.47179687 7.86125 -0.71484375 8.5625 C-2.28501918 12.15147242 -4.36342824 15.27753173 -6.5625 18.5 C-7.00070068 19.1506543 -7.43890137 19.80130859 -7.89038086 20.47167969 C-10.10846852 23.75519822 -12.35473929 27.01798619 -14.625 30.265625 C-15.24072876 31.14734375 -15.24072876 31.14734375 -15.86889648 32.046875 C-17.00282466 33.66485065 -18.1437991 35.27788132 -19.28515625 36.890625 C-21.12488916 39.44674835 -21.12488916 39.44674835 -22 42.5 C-19.68756872 42.52742013 -17.37503906 42.54658282 -15.0625 42.5625 C-14.37752441 42.56725342 -13.69254883 42.57200684 -12.98681641 42.5769043 C-9.21499763 42.57912982 -5.59972554 42.39429075 -1.875 41.8125 C2 41.5 2 41.5 5.0625 42.8125 C5.701875 43.369375 6.34125 43.92625 7 44.5 C7 45.16 7 45.82 7 46.5 C5.60550891 46.983059 4.20933293 47.46125517 2.8125 47.9375 C2.03519531 48.20433594 1.25789063 48.47117188 0.45703125 48.74609375 C-8.69103904 51.55305331 -18.34906894 50.8830033 -27.74609375 49.69140625 C-30.27298254 49.40270788 -30.27298254 49.40270788 -33.875 49.9375 C-40.15893494 50.03905854 -45.22325465 45.07627382 -50 41.5 C-50.8559375 40.87996094 -51.711875 40.25992188 -52.59375 39.62109375 C-57.02299579 36.32130564 -60.98872837 33.16261413 -64 28.5 C-64.3125 24.625 -64.3125 24.625 -64 21.5 C-59.99399083 23.75338016 -56.40523357 26.40075737 -52.76953125 29.1953125 C-49.4174804 31.66680253 -47.14178376 31.74850703 -43 31.5 C-39.44313749 30.16245507 -37.81220555 28.29427806 -35.609375 25.24609375 C-34.66771484 23.9631543 -34.66771484 23.9631543 -33.70703125 22.65429688 C-33.06121094 21.75775391 -32.41539063 20.86121094 -31.75 19.9375 C-13.19992699 -5.64946165 -13.19992699 -5.64946165 0 0 Z " fill="#DD4342" transform="translate(75,42.5)"/>
<path d="M0 0 C4.70858184 0.11284183 8.09487402 0.42071937 12.125 3 C14.49430152 6.79088243 14.0920294 8.76194008 13.19921875 13.01171875 C13.10060547 13.99591797 13.10060547 13.99591797 13 15 C13.66 15.66 14.32 16.32 15 17 C15.19335938 17.96099609 15.19335938 17.96099609 15.390625 18.94140625 C16.20068221 21.67794568 17.41410558 22.35242879 19.75 23.9375 C26.61473676 28.86885279 31.20394586 33.90309323 34 42 C34.3686526 45.38699577 34.32437353 48.61209872 34 52 C30.61282853 50.36652065 28.37556521 48.98861429 26 46 C25.59594997 44.61229713 25.22439384 43.21496199 24.875 41.8125 C22.97994705 35.43248841 18.04333263 32.00860633 13 28 C12.21238281 27.26394531 11.42476562 26.52789062 10.61328125 25.76953125 C5.66056853 22.41590067 -0.26107173 23.33833533 -6 24 C-9.31843888 25.51367387 -11.06843445 26.66326725 -13.140625 29.63671875 C-14.3125 31.3125 -14.3125 31.3125 -17 34 C-24.83657474 34.84526126 -31.11975707 31.07595569 -37.328125 26.828125 C-39.69254503 24.24273114 -39.96082181 22.47815234 -40 19 C-38.48828125 16.33203125 -38.48828125 16.33203125 -36.3125 13.8125 C-35.60738281 12.97332031 -34.90226562 12.13414063 -34.17578125 11.26953125 C-29.67566799 6.57551724 -25.58322747 4.1420461 -18.9453125 3.87890625 C-15.96070383 3.87539495 -12.98324169 3.91310947 -10 4 C-9.67 4.66 -9.34 5.32 -9 6 C-7.88625 5.731875 -6.7725 5.46375 -5.625 5.1875 C0.05817946 4.41344688 4.24224512 7.18239516 9 10 C9 9.01 9 8.02 9 7 C5.7 6.01 2.4 5.02 -1 4 C-0.67 2.68 -0.34 1.36 0 0 Z " fill="#DD4342" transform="translate(67,15)"/>
<path d="M0 0 C2.4375 0.375 2.4375 0.375 5.4375 2.375 C5.4375 3.035 5.4375 3.695 5.4375 4.375 C6.16324219 4.62636719 6.88898437 4.87773438 7.63671875 5.13671875 C10.66414294 6.47520337 12.75402373 8.02266486 15.25 10.1875 C16.04019531 10.85394531 16.83039062 11.52039063 17.64453125 12.20703125 C19.4375 14.375 19.4375 14.375 19.69921875 17.13671875 C19.61285156 17.87535156 19.52648438 18.61398438 19.4375 19.375 C18.4475 19.375 17.4575 19.375 16.4375 19.375 C16.251875 20.035 16.06625 20.695 15.875 21.375 C14.53561748 24.17023308 13.15273097 26.31825863 11.25 28.75 C10.69957031 29.45898438 10.14914063 30.16796875 9.58203125 30.8984375 C7.4375 32.375 7.4375 32.375 4.0625 32.37890625 C-0.04553778 31.24122768 -2.18130412 29.7291922 -5.375 26.9375 C-6.30957031 26.13441406 -7.24414062 25.33132812 -8.20703125 24.50390625 C-12.51553644 20.60981781 -12.51553644 20.60981781 -13.0625 17.875 C-12.15294639 11.50812474 -6.99860047 1.02418543 0 0 Z " fill="#DE5454" transform="translate(24.5625,39.625)"/>
<path d="M0 0 C3.85626204 2.19672639 6.91929925 4.8199218 10 8 C7.50907189 9.24546405 6.58919267 8.7767578 4 8 C3.95875 8.886875 3.9175 9.77375 3.875 10.6875 C2.67871446 15.21629527 0.73728113 16.29643492 -3 19 C-3 15.40142046 -2.04169485 13.90548882 0 11 C0.66 11 1.32 11 2 11 C2 9.35 2 7.7 2 6 C-2.74196143 4.10321543 -6.94961282 3.23478982 -12 4 C-21.57320914 8.27739132 -27.85329741 20.02064199 -33.859375 28.2734375 C-39.23113208 35.11556604 -39.23113208 35.11556604 -43 37 C-48.36826456 37.61003006 -50.76453648 36.21895227 -55 33 C-55.7115625 32.47148438 -56.423125 31.94296875 -57.15625 31.3984375 C-59.11356491 29.94423523 -61.05999013 28.47716487 -63 27 C-63.59130428 29.65934047 -63.59130428 29.65934047 -63 33 C-60.91536818 35.91534977 -58.52494637 38.46217125 -56 41 C-59 41 -59 41 -60.5703125 39.5390625 C-61.08335938 38.90742187 -61.59640625 38.27578125 -62.125 37.625 C-62.64320312 36.99851563 -63.16140625 36.37203125 -63.6953125 35.7265625 C-66.38384957 32.16867812 -66.23622739 29.40957798 -66 25 C-65.34 24.34 -64.68 23.68 -64 23 C-64.33 22.67 -64.66 22.34 -65 22 C-64.62056512 17.90210331 -64.30694043 15.46041065 -62 12 C-61.34 12.33 -60.68 12.66 -60 13 C-60.99 14.485 -60.99 14.485 -62 16 C-62.51577776 18.94971113 -62.51577776 18.94971113 -62 22 C-60.25341581 24.33035626 -60.25341581 24.33035626 -57.8125 26.1875 C-57.03519531 26.84105469 -56.25789063 27.49460937 -55.45703125 28.16796875 C-50.84939532 31.65512165 -50.84939532 31.65512165 -45.453125 33.4921875 C-41.89787227 32.77887246 -40.87803673 30.992164 -38.75 28.125 C-38.06421875 27.22007813 -37.3784375 26.31515625 -36.671875 25.3828125 C-35.00290852 23.12884712 -35.00290852 23.12884712 -34 21 C-33.401875 20.9175 -32.80375 20.835 -32.1875 20.75 C-28.79196451 19.5858164 -27.77725998 16.98325782 -26 14 C-26.721875 14.103125 -27.44375 14.20625 -28.1875 14.3125 C-32.12041589 13.87550935 -33.46321923 11.89917803 -36 9 C-35.28714844 9.165 -34.57429688 9.33 -33.83984375 9.5 C-30.73774951 10.03441193 -28.13786049 10.32562703 -25 10 C-22.66045359 8.20918357 -21.2068581 6.39609931 -19.53515625 3.98046875 C-14.97808672 -1.89849882 -6.69323956 -1.10596448 0 0 Z M-12 1 C-12 1.33 -12 1.66 -12 2 C-9.36 2 -6.72 2 -4 2 C-4 1.67 -4 1.34 -4 1 C-6.64 1 -9.28 1 -12 1 Z M-35 25 C-34 27 -34 27 -34 27 Z " fill="#F2D6DA" transform="translate(75,38)"/>
<path d="M0 0 C0.99 0.66 1.98 1.32 3 2 C3 2.66 3 3.32 3 4 C1.60550891 4.483059 0.20933293 4.96125517 -1.1875 5.4375 C-1.96480469 5.70433594 -2.74210937 5.97117187 -3.54296875 6.24609375 C-12.70440514 9.05715452 -22.28580079 8.31652315 -31.69921875 7.22265625 C-35.14529287 6.88916521 -38.54033444 6.93593212 -42 7 C-42.33 6.34 -42.66 5.68 -43 5 C-41.7625 4.67 -40.525 4.34 -39.25 4 C-38.20585938 3.7215625 -38.20585938 3.7215625 -37.140625 3.4375 C-35 3 -35 3 -31 3 C-30.67 2.34 -30.34 1.68 -30 1 C-28.68 1.33 -27.36 1.66 -26 2 C-26 1.34 -26 0.68 -26 0 C-24.44539063 0.01740234 -24.44539063 0.01740234 -22.859375 0.03515625 C-21.48958514 0.04453837 -20.11979332 0.05363812 -18.75 0.0625 C-17.72712891 0.07506836 -17.72712891 0.07506836 -16.68359375 0.08789062 C-10.71782573 0.11685066 -5.95106757 -1.19021351 0 0 Z " fill="#D85957" transform="translate(79,85)"/>
<path d="M0 0 C7.1484866 4.28909196 11.35387576 10.06162729 14 18 C14.06802967 19.72795352 14.08495645 21.45835365 14.0625 23.1875 C14.05347656 24.08855469 14.04445313 24.98960938 14.03515625 25.91796875 C14.02355469 26.60503906 14.01195313 27.29210937 14 28 C10.61282853 26.36652065 8.37556521 24.98861429 6 22 C5.57249561 20.59256671 5.18020079 19.17422772 4.8125 17.75 C3.07316246 11.79079239 -1.22383307 8.67474479 -6 5 C-5.36578125 4.87753906 -4.7315625 4.75507812 -4.078125 4.62890625 C-1.80283433 4.19303909 -1.80283433 4.19303909 -0.75 1.9375 C-0.5025 1.298125 -0.255 0.65875 0 0 Z " fill="#D64C4C" transform="translate(87,39)"/>
<path d="M0 0 C4.00600917 2.25338016 7.59476643 4.90075737 11.23046875 7.6953125 C14.03677194 9.76441905 15.69168202 10.1178761 19.125 10.0625 C21.043125 10.0315625 21.043125 10.0315625 23 10 C21 13 21 13 18 14 C17.67 16.31 17.34 18.62 17 21 C10.2720205 17.8233148 4.08784476 13.25951228 0 7 C-0.3125 3.125 -0.3125 3.125 0 0 Z " fill="#DC4749" transform="translate(11,64)"/>
<path d="M0 0 C0.66 0.33 1.32 0.66 2 1 C1.01 2.485 1.01 2.485 0 4 C-0.51577776 6.94971113 -0.51577776 6.94971113 0 10 C1.74658419 12.33035626 1.74658419 12.33035626 4.1875 14.1875 C4.96480469 14.84105469 5.74210937 15.49460937 6.54296875 16.16796875 C11.13626124 19.64179053 11.13626124 19.64179053 16.5 21.4375 C19.82613883 20.8554257 21.48114551 19.17846875 24 17 C24.66 17 25.32 17 26 17 C25.06601394 20.14158949 24.33205059 21.7325148 21.75 23.8125 C18.45597488 25.23491994 16.55747052 25.50821007 13 25 C10.125 23.375 10.125 23.375 7 21 C6.2884375 20.47148438 5.576875 19.94296875 4.84375 19.3984375 C2.88643509 17.94423523 0.94000987 16.47716487 -1 15 C-1.59130428 17.65934047 -1.59130428 17.65934047 -1 21 C1.08463182 23.91534977 3.47505363 26.46217125 6 29 C3 29 3 29 1.4296875 27.5390625 C0.66011719 26.59160156 0.66011719 26.59160156 -0.125 25.625 C-0.90230469 24.68527344 -0.90230469 24.68527344 -1.6953125 23.7265625 C-4.38384957 20.16867812 -4.23622739 17.40957798 -4 13 C-3.34 12.34 -2.68 11.68 -2 11 C-2.33 10.67 -2.66 10.34 -3 10 C-2.62056512 5.90210331 -2.30694043 3.46041065 0 0 Z " fill="#F4E0E4" transform="translate(13,50)"/>
<path d="M0 0 C-0.33 1.32 -0.66 2.64 -1 4 C-8.7527507 5.51537186 -16.10042938 6.27990605 -24 6 C-24 4.35 -24 2.7 -24 1 C-23.10796875 0.93941406 -22.2159375 0.87882812 -21.296875 0.81640625 C-19.54117188 0.69072266 -19.54117188 0.69072266 -17.75 0.5625 C-16.58984375 0.48128906 -15.4296875 0.40007812 -14.234375 0.31640625 C-11.14991487 0.09823845 -11.14991487 0.09823845 -8.8125 -0.5625 C-5.81436235 -1.2861884 -2.99665662 -0.51865211 0 0 Z " fill="#D93F40" transform="translate(79,85)"/>
<path d="M0 0 C0 0.66 0 1.32 0 2 C1.65 1.34 3.3 0.68 5 0 C5 0.66 5 1.32 5 2 C6.093125 2.12375 7.18625 2.2475 8.3125 2.375 C12 3 12 3 15 5 C15 5.99 15 6.98 15 8 C12.01770321 7.5739576 10.1801057 7.12656076 7.6875 5.375 C4.73170161 3.86273106 3.96359173 3.94265347 0.8125 4.4375 C-0.445625 4.623125 -1.70375 4.80875 -3 5 C-3.66 4.34 -4.32 3.68 -5 3 C-7.53264507 2.71816675 -7.53264507 2.71816675 -10.375 2.8125 C-11.33148438 2.81894531 -12.28796875 2.82539063 -13.2734375 2.83203125 C-15.66594068 2.97942041 -17.71041797 3.32180627 -20 4 C-15.15746896 -1.72299123 -6.80941413 -1.48030742 0 0 Z " fill="#E79091" transform="translate(61,17)"/>
<path d="M0 0 C4.8170411 0.11544107 8.10059178 0.37041424 12.125 3.1875 C14 6 14 6 13.9375 9.125 C13 12 13 12 11 15 C11 12.36 11 9.72 11 7 C10.01 8.485 10.01 8.485 9 10 C9 9.01 9 8.02 9 7 C5.7 6.01 2.4 5.02 -1 4 C-0.67 2.68 -0.34 1.36 0 0 Z " fill="#DB5452" transform="translate(67,15)"/>
<path d="M0 0 C-0.61277612 2.96175123 -1.25372522 4.38058783 -3 7 C-3.66 6.67 -4.32 6.34 -5 6 C-5.2475 6.61875 -5.495 7.2375 -5.75 7.875 C-7.20628639 10.35068687 -8.37812506 10.95125002 -11 12 C-11.7555432 14.7412565 -11.7555432 14.7412565 -11 18 C-8.77396066 19.84852389 -6.47664473 21.26340765 -3.96875 22.703125 C-3.3190625 23.13109375 -2.669375 23.5590625 -2 24 C-2 24.66 -2 25.32 -2 26 C-4.69938038 24.81227263 -7.20718455 23.33719775 -9.6875 21.75 C-10.28949219 21.37359375 -10.89148438 20.9971875 -11.51171875 20.609375 C-13.77538804 18.16152264 -13.9347323 16.29193969 -14 13 C-12.48828125 10.33203125 -12.48828125 10.33203125 -10.3125 7.8125 C-9.60738281 6.97332031 -8.90226562 6.13414063 -8.17578125 5.26953125 C-3.12392427 0 -3.12392427 0 0 0 Z " fill="#EEBBBF" transform="translate(41,21)"/>
<path d="M0 0 C4.22489602 0.53280216 6.54080716 1.87678199 9.8125 4.5625 C10.60269531 5.20316406 11.39289063 5.84382813 12.20703125 6.50390625 C12.79871094 6.99761719 13.39039062 7.49132813 14 8 C11.50907189 9.24546405 10.58919267 8.7767578 8 8 C7.95875 8.886875 7.9175 9.77375 7.875 10.6875 C6.67871446 15.21629527 4.73728113 16.29643492 1 19 C1 15.40142046 1.95830515 13.90548882 4 11 C4.66 11 5.32 11 6 11 C6 9.35 6 7.7 6 6 C4.02 5.34 2.04 4.68 0 4 C0.99 3.67 1.98 3.34 3 3 C3 2.34 3 1.68 3 1 C2.01 0.67 1.02 0.34 0 0 Z " fill="#F4CECE" transform="translate(71,38)"/>
<path d="M0 0 C0.33 0.66 0.66 1.32 1 2 C3.5625718 2.02710123 6.12485365 2.04688771 8.6875 2.0625 C9.40873047 2.07087891 10.12996094 2.07925781 10.87304688 2.08789062 C14.73897896 2.10554328 18.22581828 1.765776 22 1 C24.8125 1.9375 24.8125 1.9375 27 3 C27 3.66 27 4.32 27 5 C26.39671875 4.91621094 25.7934375 4.83242187 25.171875 4.74609375 C23.97304687 4.59333984 23.97304687 4.59333984 22.75 4.4375 C21.96109375 4.33308594 21.1721875 4.22867188 20.359375 4.12109375 C17.94823493 3.99734318 16.32035702 4.40358553 14 5 C11.98083881 5.09214964 9.95875663 5.13000931 7.9375 5.125 C6.37322266 5.12886719 6.37322266 5.12886719 4.77734375 5.1328125 C2 5 2 5 -1 4 C-0.67 2.68 -0.34 1.36 0 0 Z " fill="#F8BEB8" transform="translate(54,81)"/>
<path d="M0 0 C-0.33 1.32 -0.66 2.64 -1 4 C-5.455 4.495 -5.455 4.495 -10 5 C-10.66 3.68 -11.32 2.36 -12 1 C-7.67265609 -1.22923777 -4.71599818 -0.92470553 0 0 Z " fill="#DA4946" transform="translate(79,85)"/>
<path d="M0 0 C0.99 0.33 1.98 0.66 3 1 C4.125 8.75 4.125 8.75 3 11 C1.0625 10.4375 1.0625 10.4375 -1 9 C-1.875 5.5 -1.875 5.5 -2 2 C-1.34 1.34 -0.68 0.68 0 0 Z " fill="#D9413E" transform="translate(95,51)"/>
<path d="M0 0 C3.53372712 1.96318174 6.24479785 4.04070881 9 7 C8.34 7 7.68 7 7 7 C6.67 7.66 6.34 8.32 6 9 C5.01 8.01 4.02 7.02 3 6 C2.67 7.32 2.34 8.64 2 10 C-0.4294516 6.3558226 -0.16179575 4.28758728 0 0 Z " fill="#DB5558" transform="translate(11,64)"/>
<path d="M0 0 C2.42581871 2.42581871 2.96355664 4.07433869 3.09765625 7.48046875 C3.08605469 8.37378906 3.07445313 9.26710938 3.0625 10.1875 C3.05347656 11.08855469 3.04445313 11.98960938 3.03515625 12.91796875 C3.02355469 13.60503906 3.01195313 14.29210937 3 15 C1.0625 14.1875 1.0625 14.1875 -1 13 C-1.33 12.01 -1.66 11.02 -2 10 C-1.34 10 -0.68 10 0 10 C0 6.7 0 3.4 0 0 Z " fill="#D56D6D" transform="translate(98,52)"/>
<path d="M0 0 C3.63 2.31 7.26 4.62 11 7 C8.39902318 8.30048841 5.86044938 8.56471422 3 9 C0.70620251 5.55930376 0 4.27709699 0 0 Z " fill="#FBE6E0" transform="translate(20,80)"/>
<path d="M0 0 C1.32 1.32 2.64 2.64 4 4 C3.67 4.66 3.34 5.32 3 6 C2.01 6.33 1.02 6.66 0 7 C0.165 8.093125 0.33 9.18625 0.5 10.3125 C1 14 1 14 1 17 C-1.34914492 14.65085508 -1.73140357 13.04320554 -2.625 9.875 C-2.88539062 8.96492188 -3.14578125 8.05484375 -3.4140625 7.1171875 C-3.60742188 6.41851562 -3.80078125 5.71984375 -4 5 C-2.68 4.34 -1.36 3.68 0 3 C0 2.01 0 1.02 0 0 Z " fill="#D55654" transform="translate(94,46)"/>
<path d="M0 0 C-0.66 0.66 -1.32 1.32 -2 2 C-4.625 1.625 -4.625 1.625 -7 1 C-7 0.67 -7 0.34 -7 0 C-2.25 -1.125 -2.25 -1.125 0 0 Z M-7 2 C-6.34 2.33 -5.68 2.66 -5 3 C-5.33 5.31 -5.66 7.62 -6 10 C-7.32 9.34 -8.64 8.68 -10 8 C-9.625 5.5625 -9.625 5.5625 -9 3 C-8.34 2.67 -7.68 2.34 -7 2 Z " fill="#DA5455" transform="translate(34,75)"/>
<path d="M0 0 C3.35770877 2.23847252 3.2145965 2.40958399 4 6 C4.66 6.66 5.32 7.32 6 8 C4.68 8 3.36 8 2 8 C1.34 5.36 0.68 2.72 0 0 Z M2 8 C1.01 8.495 1.01 8.495 0 9 C0 9.66 0 10.32 0 11 C0.66 11 1.32 11 2 11 C1.67 11.66 1.34 12.32 1 13 C-0.65 11.35 -2.3 9.7 -4 8 C-1.50907189 6.75453595 -0.58919267 7.2232422 2 8 Z " fill="#D65556" transform="translate(79,30)"/>
<path d="M0 0 C0.87527344 -0.00257812 1.75054687 -0.00515625 2.65234375 -0.0078125 C5.0625 0.125 5.0625 0.125 8.0625 1.125 C8.0625 1.785 8.0625 2.445 8.0625 3.125 C1.6275 3.62 1.6275 3.62 -4.9375 4.125 C-4.9375 3.465 -4.9375 2.805 -4.9375 2.125 C-5.5975 1.795 -6.2575 1.465 -6.9375 1.125 C-4.46371876 -0.11189062 -2.75834683 -0.00810087 0 0 Z M-2.9375 1.125 C-2.9375 1.455 -2.9375 1.785 -2.9375 2.125 C-0.2975 2.125 2.3425 2.125 5.0625 2.125 C5.0625 1.795 5.0625 1.465 5.0625 1.125 C2.4225 1.125 -0.2175 1.125 -2.9375 1.125 Z " fill="#F4E1E5" transform="translate(65.9375,37.875)"/>
<path d="M0 0 C0.99 0.33 1.98 0.66 3 1 C3 1.66 3 2.32 3 3 C-6.41002278 6.44419134 -6.41002278 6.44419134 -11 6 C-8.41741077 3.41741077 -6.27124388 3.27012534 -2.77734375 2.5625 C-1.89755859 2.2840625 -1.89755859 2.2840625 -1 2 C-0.67 1.34 -0.34 0.68 0 0 Z " fill="#CD5252" transform="translate(79,86)"/>
<path d="M0 0 C1 3 1 3 -0.125 5.5 C-2.16131229 8.21508305 -4.00479488 9.46192169 -7 11 C-5.87548273 8.0280615 -4.77706209 5.66559313 -3 3 C-2.34 3 -1.68 3 -1 3 C-0.67 2.01 -0.34 1.02 0 0 Z " fill="#FADDD3" transform="translate(78,46)"/>
<path d="M0 0 C4.75 1.875 4.75 1.875 7 3 C7 3.99 7 4.98 7 6 C3.62537285 5.45276317 1.91765 4.9451 -1 3 C-0.67 2.01 -0.34 1.02 0 0 Z " fill="#F8D7D6" transform="translate(69,19)"/>
<path d="M0 0 C0.99 0.33 1.98 0.66 3 1 C2.67 2.65 2.34 4.3 2 6 C1.34 6 0.68 6 0 6 C-0.66 7.65 -1.32 9.3 -2 11 C-2.33 9.68 -2.66 8.36 -3 7 C-2.34 7 -1.68 7 -1 7 C-1.33 6.01 -1.66 5.02 -2 4 C-1.0625 1.8125 -1.0625 1.8125 0 0 Z " fill="#D75C5E" transform="translate(75,43)"/>
<path d="M0 0 C0.99 0.33 1.98 0.66 3 1 C1.85821872 2.66944521 0.71147095 4.3354948 -0.4375 6 C-1.07558594 6.928125 -1.71367188 7.85625 -2.37109375 8.8125 C-2.90863281 9.534375 -3.44617187 10.25625 -4 11 C-4.33 11 -4.66 11 -5 11 C-5 9.35 -5 7.7 -5 6 C-4.01 6 -3.02 6 -2 6 C-2 5.01 -2 4.02 -2 3 C-1.34 3 -0.68 3 0 3 C0 2.01 0 1.02 0 0 Z " fill="#D15A57" transform="translate(60,68)"/>
<path d="M0 0 C-0.6875 2.375 -0.6875 2.375 -2 5 C-4.625 6.3125 -4.625 6.3125 -7 7 C-6.61402985 4.20171644 -6.19863427 3.1794116 -4.0625 1.25 C-2 0 -2 0 0 0 Z " fill="#F7E7EA" transform="translate(39,67)"/>
<path d="M0 0 C1.32 0.66 2.64 1.32 4 2 C3.67 2.33 3.34 2.66 3 3 C2.76636119 4.84891946 2.58696365 6.70488031 2.4375 8.5625 C2.35371094 9.57441406 2.26992187 10.58632812 2.18359375 11.62890625 C2.12300781 12.41136719 2.06242187 13.19382812 2 14 C1.01 13.67 0.02 13.34 -1 13 C-0.34 13 0.32 13 1 13 C0.67 8.71 0.34 4.42 0 0 Z " fill="#FBE6E4" transform="translate(100,54)"/>
<path d="M0 0 C1.65 0.33 3.3 0.66 5 1 C4.360625 1.61875 3.72125 2.2375 3.0625 2.875 C0.96116416 4.82597612 0.96116416 4.82597612 0 7 C-1.125 2.25 -1.125 2.25 0 0 Z " fill="#DA3F3E" transform="translate(24,75)"/>
<path d="M0 0 C1.65 0 3.3 0 5 0 C5 0.66 5 1.32 5 2 C4.34 2 3.68 2 3 2 C3 2.66 3 3.32 3 4 C1.68 4 0.36 4 -1 4 C-0.67 2.68 -0.34 1.36 0 0 Z " fill="#E13C3F" transform="translate(30,65)"/>
<path d="M0 0 C0.66 0 1.32 0 2 0 C1.67 2.97 1.34 5.94 1 9 C-1 5 -1 5 -1 1 C-0.67 0.67 -0.34 0.34 0 0 Z " fill="#FCEBEA" transform="translate(81,16)"/>
</svg>
